# xmcd
#
# Track frame offsets: 
#        150
#        24404
#        46124
#        67909
#        91392
#        113055
#        132750
#        152974
#        174975
#        192905
#        209219
#
# Disc length: 2952 seconds
#
# Revision: 0
# Processed by: cddbd v1.5.2PL0 Copyright (c) Steve Scherf et al.
# Submitted via: ExactAudioCopyFreeDBPlugin 1.0
#
DISCID=900b860b
DTITLE=Liz Mandeville - Heart 'O' Chicago
DYEAR=2014
DGENRE=Blues
TTITLE0=Cloud Of Love
TTITLE1=These Blues
TTITLE2=Don't Doubt My Love
TTITLE3=So Called Best Friend
TTITLE4=Quit Me On A Voicemail
TTITLE5=Party At The End Of Time
TTITLE6=Silver Lining (Shirley's Blues)
TTITLE7=Tic Tok
TTITLE8=Why Would A Woman Sing The Blues
TTITLE9=Smart Woman Foolish Choices
TTITLE10=(Life Is Like A) Wave
EXTD=
EXTT0=
EXTT1=
EXTT2=
EXTT3=
EXTT4=
EXTT5=
EXTT6=
EXTT7=
EXTT8=
EXTT9=
EXTT10=
PLAYORDER=
